<svg id="Layer_1" data-name="Layer 1" xmlns="http://www.w3.org/2000/svg" viewBox="0 0 24 24"><defs><style>.cls-1{opacity:0.2;}.cls-2{fill:#fff;}.cls-3{opacity:0.4;}.cls-4{opacity:0.6;}</style></defs><title>icon</title><g id="medium__group"><g id="medium__straight-right" class="cls-1"><path class="cls-2" d="M21.69,6.77a.07.07,0,0,1,0,.09l-6.46,10.5,5.42,2.71c.6.3,1.08.09,1.08-.47V6.88A.11.11,0,0,0,21.69,6.77Z"/></g><g id="medium__diagonal-right" class="cls-3"><path class="cls-2" d="M21.68,6.76,15.79,3.81a.68.68,0,0,0-.86.24L11,10.45l4.25,6.91,6.46-10.5A.06.06,0,0,0,21.68,6.76Z"/></g><g id="medium__diagonal-left" class="cls-4"><path class="cls-2" d="M15.25,17.36,8.76,6.81l0,0h0a.08.08,0,0,1,0,.06v7.28Z"/></g><g id="medium__straight-left"><path class="cls-2" d="M8.75,19.6a.57.57,0,0,1-.9.56L2.79,17.63a1.06,1.06,0,0,1-.54-.87V4.35A.46.46,0,0,1,3,3.9L8.71,6.77a.08.08,0,0,1,0,.06Z"/></g></g></svg>