<svg id="Layer_1" data-name="Layer 1" xmlns="http://www.w3.org/2000/svg" viewBox="0 0 24 24"><defs><style>.cls-1{fill:#fff;}</style></defs><title>icon</title><path class="cls-1" d="M8,20.74A12.47,12.47,0,0,0,20.56,8.18V7.62a9,9,0,0,0,2.2-2.27,8.58,8.58,0,0,1-2.53.7,4.41,4.41,0,0,0,1.95-2.47,8.74,8.74,0,0,1-2.83,1.06,4.42,4.42,0,0,0-7.52,4,12.6,12.6,0,0,1-9.1-4.59A4.42,4.42,0,0,0,4.1,10a4.36,4.36,0,0,1-2-.57v.06a4.42,4.42,0,0,0,3.54,4.33,4.46,4.46,0,0,1-2,.07,4.43,4.43,0,0,0,4.13,3.07,8.89,8.89,0,0,1-5.49,1.89c-.35,0-.7,0-1,0a12.46,12.46,0,0,0,6.79,2"/></svg>