<?xml version="1.0" encoding="utf-8"?>
<!-- Generator: Adobe Illustrator 22.1.0, SVG Export Plug-In . SVG Version: 6.00 Build 0)  -->
<svg version="1.1" id="Layer_1" xmlns="http://www.w3.org/2000/svg" xmlns:xlink="http://www.w3.org/1999/xlink" x="0px" y="0px"
	 viewBox="0 0 40 40" style="enable-background:new 0 0 40 40;" xml:space="preserve">
<style type="text/css">
	.st0{fill:#FFFFFF;}
</style>
<path class="st0" d="M20,3.2c-4.6,0-5.2,0-7,0.1S10,3.6,8.9,4c-1.2,0.4-2.1,1.1-3,2c-1,1-1.5,1.9-2,3c-0.4,1.1-0.7,2.3-0.8,4.1
	S3,15.6,3,20.1s0,5.3,0.1,7s0.4,3,0.8,4.1c0.4,1.2,1,2.1,2,3c1,1,1.9,1.5,3,2c1.1,0.4,2.3,0.7,4.1,0.8c1.8,0.1,2.4,0.1,7,0.1
	s5.2,0,7-0.1s3-0.4,4.1-0.8c1.2-0.4,2.1-1,3-2c1-1,1.5-1.9,2-3c0.4-1.1,0.7-2.3,0.8-4.1c0.1-1.8,0.1-2.4,0.1-7s0-5.2-0.1-7
	s-0.4-3-0.8-4.1c-0.4-1.2-1-2.1-2-3c-1-1-1.9-1.5-3-2C30,3.7,28.7,3.4,27,3.3C25.2,3.2,24.6,3.2,20,3.2L20,3.2z M18.5,6.3
	c0.4,0,1,0,1.5,0c4.6,0,5.1,0,6.9,0.1C28.6,6.5,29.4,6.7,30,7c0.8,0.4,1.3,0.7,2,1.2c0.6,0.6,1,1.2,1.2,2c0.3,0.6,0.5,1.5,0.6,3.1
	c0.1,1.8,0.1,2.3,0.1,6.9s0,5.1-0.1,6.9c-0.1,1.7-0.4,2.5-0.6,3.1c-0.4,0.8-0.7,1.3-1.2,2c-0.6,0.6-1.2,1-2,1.2
	c-0.6,0.3-1.5,0.5-3.1,0.6c-1.8,0.1-2.3,0.1-6.9,0.1s-5.1,0-6.9-0.1c-1.7-0.1-2.5-0.4-3.1-0.6c-0.8-0.4-1.3-0.7-2-1.2s-1-1.2-1.2-2
	c-0.3-0.6-0.5-1.5-0.6-3.1c-0.1-1.9-0.1-2.4-0.1-6.9s0-5.1,0.1-6.9c0.1-1.7,0.4-2.6,0.6-3.2c0.4-0.7,0.7-1.3,1.3-1.9
	c0.6-0.5,1.2-1,1.9-1.3c0.6-0.3,1.5-0.5,3.1-0.6C14.7,6.3,15.4,6.2,18.5,6.3L18.5,6.3z M29,9C27.9,9,27,9.9,27,11.1s0.9,2.1,2.1,2.1
	c1.2,0,2.1-0.9,2.1-2.1S30.2,9,29,9L29,9z M20,11.4c-4.8,0-8.7,3.9-8.7,8.7s3.9,8.7,8.7,8.7s8.7-3.9,8.7-8.7S24.8,11.4,20,11.4
	L20,11.4z M20,14.5c3.1,0,5.6,2.5,5.6,5.6S23,25.7,20,25.7s-5.6-2.6-5.6-5.6S16.9,14.5,20,14.5z"/>
</svg>
